G04*
G04 #@! TF.GenerationSoftware,Altium Limited,Altium Designer,22.11.1 (43)*
G04*
G04 Layer_Physical_Order=2*
G04 Layer_Color=16711680*
%FSLAX44Y44*%
%MOMM*%
G71*
G04*
G04 #@! TF.SameCoordinates,E944E28D-31DF-4D82-9DE5-676DE6D60E10*
G04*
G04*
G04 #@! TF.FilePolarity,Positive*
G04*
G01*
G75*
%ADD32C,0.5000*%
%ADD34C,0.4000*%
%ADD35C,1.4000*%
G04:AMPARAMS|DCode=36|XSize=1.4mm|YSize=1.4mm|CornerRadius=0.35mm|HoleSize=0mm|Usage=FLASHONLY|Rotation=180.000|XOffset=0mm|YOffset=0mm|HoleType=Round|Shape=RoundedRectangle|*
%AMROUNDEDRECTD36*
21,1,1.4000,0.7000,0,0,180.0*
21,1,0.7000,1.4000,0,0,180.0*
1,1,0.7000,-0.3500,0.3500*
1,1,0.7000,0.3500,0.3500*
1,1,0.7000,0.3500,-0.3500*
1,1,0.7000,-0.3500,-0.3500*
%
%ADD36ROUNDEDRECTD36*%
%ADD37C,2.2000*%
%ADD38C,2.5000*%
%ADD39C,0.8000*%
G36*
X116000Y81000D02*
X9000D01*
Y295347D01*
X116000D01*
X116000Y81000D01*
D02*
G37*
G36*
X71380Y59000D02*
X69346D01*
Y71551D01*
X60967Y59000D01*
X58783D01*
Y74995D01*
X60817D01*
Y62432D01*
X69207Y74995D01*
X71380D01*
Y59000D01*
D02*
G37*
G36*
X95846Y75261D02*
X96228Y75226D01*
X96597Y75180D01*
X96956Y75122D01*
X97291Y75053D01*
X97614Y74960D01*
X97915Y74879D01*
X98192Y74787D01*
X98435Y74694D01*
X98666Y74613D01*
X98863Y74533D01*
X99024Y74452D01*
X99163Y74394D01*
X99256Y74348D01*
X99313Y74313D01*
X99337Y74302D01*
X99660Y74105D01*
X99960Y73897D01*
X100238Y73677D01*
X100504Y73446D01*
X100746Y73215D01*
X100966Y72984D01*
X101174Y72741D01*
X101347Y72522D01*
X101509Y72314D01*
X101659Y72106D01*
X101775Y71932D01*
X101879Y71782D01*
X101948Y71643D01*
X102006Y71551D01*
X102041Y71493D01*
X102052Y71470D01*
X102214Y71112D01*
X102364Y70753D01*
X102492Y70384D01*
X102596Y70014D01*
X102688Y69644D01*
X102769Y69274D01*
X102827Y68927D01*
X102885Y68604D01*
X102919Y68292D01*
X102954Y68003D01*
X102965Y67749D01*
X102989Y67529D01*
Y67356D01*
X103000Y67286D01*
Y67229D01*
Y67182D01*
Y67148D01*
Y67125D01*
Y67113D01*
X102989Y66685D01*
X102965Y66269D01*
X102919Y65865D01*
X102873Y65483D01*
X102804Y65102D01*
X102734Y64755D01*
X102653Y64420D01*
X102572Y64108D01*
X102503Y63831D01*
X102422Y63577D01*
X102353Y63357D01*
X102283Y63172D01*
X102237Y63022D01*
X102191Y62918D01*
X102168Y62849D01*
X102156Y62837D01*
Y62825D01*
X101995Y62467D01*
X101810Y62120D01*
X101613Y61808D01*
X101417Y61508D01*
X101209Y61242D01*
X101001Y60988D01*
X100804Y60768D01*
X100608Y60560D01*
X100423Y60375D01*
X100250Y60225D01*
X100099Y60086D01*
X99960Y59982D01*
X99845Y59901D01*
X99764Y59832D01*
X99718Y59797D01*
X99695Y59786D01*
X99383Y59601D01*
X99047Y59439D01*
X98701Y59300D01*
X98354Y59173D01*
X98007Y59081D01*
X97649Y58988D01*
X97314Y58919D01*
X96979Y58861D01*
X96678Y58827D01*
X96389Y58792D01*
X96135Y58769D01*
X95916Y58746D01*
X95742D01*
X95661Y58734D01*
X95488D01*
X95026Y58746D01*
X94586Y58792D01*
X94171Y58861D01*
X93766Y58942D01*
X93396Y59046D01*
X93049Y59162D01*
X92726Y59289D01*
X92437Y59416D01*
X92171Y59543D01*
X91940Y59670D01*
X91732Y59786D01*
X91570Y59890D01*
X91432Y59971D01*
X91339Y60040D01*
X91281Y60086D01*
X91258Y60098D01*
X90946Y60375D01*
X90657Y60664D01*
X90391Y60976D01*
X90149Y61300D01*
X89929Y61635D01*
X89733Y61959D01*
X89559Y62282D01*
X89409Y62606D01*
X89270Y62906D01*
X89155Y63184D01*
X89062Y63426D01*
X88981Y63646D01*
X88924Y63819D01*
X88900Y63900D01*
X88889Y63958D01*
X88877Y64004D01*
X88866Y64039D01*
X88854Y64062D01*
Y64074D01*
X90969Y64605D01*
X91062Y64235D01*
X91166Y63900D01*
X91281Y63577D01*
X91420Y63288D01*
X91547Y63010D01*
X91697Y62756D01*
X91836Y62537D01*
X91975Y62328D01*
X92102Y62155D01*
X92229Y61993D01*
X92345Y61866D01*
X92449Y61762D01*
X92529Y61670D01*
X92587Y61612D01*
X92633Y61577D01*
X92645Y61566D01*
X92888Y61392D01*
X93130Y61231D01*
X93385Y61092D01*
X93639Y60976D01*
X93893Y60884D01*
X94147Y60803D01*
X94390Y60734D01*
X94621Y60676D01*
X94829Y60630D01*
X95037Y60606D01*
X95211Y60583D01*
X95361Y60560D01*
X95488D01*
X95580Y60549D01*
X95661D01*
X95927Y60560D01*
X96193Y60583D01*
X96447Y60618D01*
X96701Y60664D01*
X96933Y60722D01*
X97164Y60791D01*
X97372Y60849D01*
X97568Y60930D01*
X97742Y60999D01*
X97903Y61057D01*
X98042Y61126D01*
X98158Y61184D01*
X98250Y61231D01*
X98319Y61265D01*
X98366Y61288D01*
X98377Y61300D01*
X98608Y61450D01*
X98816Y61612D01*
X99013Y61785D01*
X99198Y61970D01*
X99360Y62155D01*
X99510Y62351D01*
X99649Y62537D01*
X99776Y62710D01*
X99880Y62883D01*
X99972Y63045D01*
X100053Y63195D01*
X100111Y63322D01*
X100169Y63426D01*
X100203Y63496D01*
X100215Y63554D01*
X100226Y63565D01*
X100330Y63854D01*
X100423Y64154D01*
X100504Y64455D01*
X100562Y64767D01*
X100677Y65356D01*
X100712Y65645D01*
X100746Y65923D01*
X100770Y66165D01*
X100781Y66396D01*
X100793Y66604D01*
X100804Y66778D01*
X100816Y66928D01*
Y67032D01*
Y67101D01*
Y67125D01*
X100804Y67425D01*
X100793Y67714D01*
X100735Y68269D01*
X100700Y68534D01*
X100654Y68789D01*
X100608Y69032D01*
X100562Y69251D01*
X100515Y69459D01*
X100481Y69644D01*
X100434Y69806D01*
X100400Y69945D01*
X100365Y70048D01*
X100342Y70129D01*
X100319Y70187D01*
Y70199D01*
X100215Y70476D01*
X100099Y70730D01*
X99972Y70973D01*
X99833Y71193D01*
X99695Y71412D01*
X99556Y71609D01*
X99406Y71782D01*
X99267Y71944D01*
X99128Y72083D01*
X99001Y72210D01*
X98886Y72314D01*
X98782Y72406D01*
X98701Y72476D01*
X98643Y72533D01*
X98597Y72556D01*
X98585Y72568D01*
X98343Y72730D01*
X98088Y72857D01*
X97834Y72984D01*
X97580Y73088D01*
X97314Y73169D01*
X97060Y73238D01*
X96817Y73296D01*
X96574Y73342D01*
X96355Y73389D01*
X96147Y73412D01*
X95962Y73435D01*
X95800Y73446D01*
X95673Y73458D01*
X95499D01*
X95199Y73446D01*
X94922Y73423D01*
X94656Y73389D01*
X94402Y73331D01*
X94171Y73273D01*
X93951Y73204D01*
X93754Y73134D01*
X93569Y73065D01*
X93408Y72984D01*
X93258Y72915D01*
X93130Y72845D01*
X93026Y72787D01*
X92945Y72730D01*
X92888Y72695D01*
X92853Y72672D01*
X92841Y72660D01*
X92645Y72499D01*
X92460Y72325D01*
X92298Y72129D01*
X92136Y71932D01*
X91986Y71713D01*
X91859Y71505D01*
X91732Y71297D01*
X91628Y71089D01*
X91536Y70892D01*
X91443Y70707D01*
X91374Y70546D01*
X91316Y70407D01*
X91270Y70280D01*
X91235Y70199D01*
X91223Y70141D01*
X91212Y70118D01*
X89132Y70603D01*
X89259Y71008D01*
X89420Y71389D01*
X89582Y71747D01*
X89767Y72083D01*
X89952Y72383D01*
X90137Y72672D01*
X90334Y72926D01*
X90519Y73157D01*
X90703Y73365D01*
X90865Y73539D01*
X91015Y73700D01*
X91154Y73816D01*
X91258Y73920D01*
X91351Y73989D01*
X91397Y74036D01*
X91420Y74047D01*
X91732Y74267D01*
X92056Y74452D01*
X92402Y74613D01*
X92737Y74752D01*
X93073Y74879D01*
X93408Y74972D01*
X93731Y75053D01*
X94043Y75122D01*
X94344Y75168D01*
X94610Y75203D01*
X94841Y75238D01*
X95049Y75249D01*
X95222Y75261D01*
X95292Y75272D01*
X95453D01*
X95846Y75261D01*
D02*
G37*
G36*
X87987Y59000D02*
X85757D01*
X84012Y63842D01*
X77297D01*
X75448Y59000D01*
X73044D01*
X79585Y74995D01*
X81851D01*
X87987Y59000D01*
D02*
G37*
G36*
X48902D02*
X46787D01*
Y66269D01*
X39286D01*
Y68153D01*
X46787D01*
Y73111D01*
X38119D01*
Y74995D01*
X48902D01*
Y59000D01*
D02*
G37*
G36*
X36570Y73111D02*
X31300D01*
Y59000D01*
X29186Y59000D01*
Y73111D01*
X23892D01*
Y74995D01*
X36570Y74995D01*
Y73111D01*
D02*
G37*
G36*
X44001Y5001D02*
X41463D01*
Y14043D01*
X31505D01*
Y5001D01*
X28967D01*
Y24195D01*
X31505D01*
Y16303D01*
X41463D01*
Y24195D01*
X44001D01*
Y5001D01*
D02*
G37*
G36*
X101001D02*
X89018D01*
Y7261D01*
X98463D01*
Y24195D01*
X101001D01*
Y5001D01*
D02*
G37*
%LPC*%
G36*
X96576Y289000D02*
X93424D01*
X90333Y288385D01*
X87421Y287179D01*
X84801Y285428D01*
X82572Y283199D01*
X80821Y280579D01*
X79615Y277667D01*
X79000Y274576D01*
Y271424D01*
X79615Y268333D01*
X80821Y265421D01*
X82572Y262801D01*
X84801Y260572D01*
X87421Y258821D01*
X90333Y257615D01*
X93424Y257000D01*
X96576D01*
X99667Y257615D01*
X102579Y258821D01*
X105199Y260572D01*
X107428Y262801D01*
X109179Y265421D01*
X110385Y268333D01*
X111000Y271424D01*
Y274576D01*
X110385Y277667D01*
X109179Y280579D01*
X107428Y283199D01*
X105199Y285428D01*
X102579Y287179D01*
X99667Y288385D01*
X96576Y289000D01*
D02*
G37*
G36*
X31576D02*
X28424D01*
X25333Y288385D01*
X22421Y287179D01*
X19801Y285428D01*
X17572Y283199D01*
X15821Y280579D01*
X14615Y277667D01*
X14000Y274576D01*
Y271424D01*
X14615Y268333D01*
X15821Y265421D01*
X17572Y262801D01*
X19801Y260572D01*
X22421Y258821D01*
X25333Y257615D01*
X28424Y257000D01*
X31576D01*
X34667Y257615D01*
X37579Y258821D01*
X40199Y260572D01*
X42428Y262801D01*
X44179Y265421D01*
X45385Y268333D01*
X46000Y271424D01*
Y274576D01*
X45385Y277667D01*
X44179Y280579D01*
X42428Y283199D01*
X40199Y285428D01*
X37579Y287179D01*
X34667Y288385D01*
X31576Y289000D01*
D02*
G37*
G36*
X94500Y253065D02*
X87500D01*
X85542Y252807D01*
X83718Y252051D01*
X82151Y250849D01*
X80949Y249282D01*
X80901Y249167D01*
X79486Y249070D01*
X77754Y250802D01*
X75246Y252250D01*
X72448Y253000D01*
X69552D01*
X66754Y252250D01*
X64246Y250802D01*
X62198Y248754D01*
X61635Y247779D01*
X60365D01*
X59802Y248754D01*
X57754Y250802D01*
X55246Y252250D01*
X52448Y253000D01*
X49552D01*
X46754Y252250D01*
X44246Y250802D01*
X42198Y248754D01*
X41635Y247779D01*
X40365D01*
X39802Y248754D01*
X37754Y250802D01*
X35246Y252250D01*
X33500Y252718D01*
Y242000D01*
Y231282D01*
X35246Y231750D01*
X37754Y233198D01*
X39802Y235246D01*
X40365Y236221D01*
X41635D01*
X42198Y235246D01*
X44246Y233198D01*
X46754Y231750D01*
X49552Y231000D01*
X52448D01*
X55246Y231750D01*
X57754Y233198D01*
X59802Y235246D01*
X60365Y236221D01*
X61635D01*
X62198Y235246D01*
X64246Y233198D01*
X66754Y231750D01*
X69552Y231000D01*
X72448D01*
X75246Y231750D01*
X77754Y233198D01*
X79486Y234930D01*
X80901Y234833D01*
X80949Y234718D01*
X82151Y233151D01*
X83718Y231949D01*
X85542Y231193D01*
X87500Y230935D01*
X94500D01*
X96458Y231193D01*
X98282Y231949D01*
X99849Y233151D01*
X101051Y234718D01*
X101807Y236542D01*
X102065Y238500D01*
Y245500D01*
X101807Y247458D01*
X101051Y249282D01*
X99849Y250849D01*
X98282Y252051D01*
X96458Y252807D01*
X94500Y253065D01*
D02*
G37*
G36*
X28500Y252718D02*
X26754Y252250D01*
X24246Y250802D01*
X22198Y248754D01*
X20750Y246246D01*
X20282Y244500D01*
X28500D01*
Y252718D01*
D02*
G37*
G36*
Y239500D02*
X20282D01*
X20750Y237754D01*
X22198Y235246D01*
X24246Y233198D01*
X26754Y231750D01*
X28500Y231282D01*
Y239500D01*
D02*
G37*
G36*
X74856Y127500D02*
X73144D01*
X71491Y127057D01*
X70009Y126201D01*
X68799Y124991D01*
X68198Y123950D01*
X68142Y123928D01*
X66858D01*
X66802Y123950D01*
X66201Y124991D01*
X64991Y126201D01*
X63509Y127057D01*
X61856Y127500D01*
X60144D01*
X58491Y127057D01*
X57009Y126201D01*
X56906Y126098D01*
X50000D01*
X48049Y125710D01*
X46395Y124605D01*
X20290Y98500D01*
X20144D01*
X18491Y98057D01*
X17009Y97201D01*
X15799Y95991D01*
X14943Y94509D01*
X14500Y92856D01*
Y91144D01*
X14943Y89491D01*
X15799Y88009D01*
X17009Y86799D01*
X18491Y85943D01*
X20144Y85500D01*
X21856D01*
X23509Y85943D01*
X24991Y86799D01*
X26201Y88009D01*
X27057Y89491D01*
X27500Y91144D01*
Y91290D01*
X29287Y93078D01*
X29534Y93033D01*
X30500Y92494D01*
Y91144D01*
X30943Y89491D01*
X31799Y88009D01*
X33009Y86799D01*
X34491Y85943D01*
X36144Y85500D01*
X37856D01*
X39509Y85943D01*
X40991Y86799D01*
X42201Y88009D01*
X43057Y89491D01*
X43500Y91144D01*
Y91290D01*
X57112Y104902D01*
X67000D01*
X68951Y105290D01*
X70605Y106395D01*
X76839Y112630D01*
X77945Y114284D01*
X78309Y116117D01*
X79201Y117009D01*
X80057Y118491D01*
X80500Y120144D01*
Y121856D01*
X80057Y123509D01*
X79201Y124991D01*
X77991Y126201D01*
X76509Y127057D01*
X74856Y127500D01*
D02*
G37*
G36*
X80776Y73319D02*
X80707Y73065D01*
X80626Y72799D01*
X80441Y72244D01*
X80256Y71690D01*
X80163Y71424D01*
X80071Y71170D01*
X79978Y70927D01*
X79909Y70696D01*
X79828Y70499D01*
X79770Y70326D01*
X79713Y70187D01*
X79678Y70083D01*
X79655Y70014D01*
X79643Y70002D01*
Y69991D01*
X77968Y65564D01*
X83399D01*
X81643Y70257D01*
X81446Y70823D01*
X81273Y71378D01*
X81192Y71643D01*
X81123Y71886D01*
X81065Y72129D01*
X80996Y72360D01*
X80949Y72568D01*
X80903Y72753D01*
X80868Y72915D01*
X80834Y73053D01*
X80811Y73169D01*
X80787Y73250D01*
X80776Y73296D01*
Y73319D01*
D02*
G37*
%LPD*%
D32*
X86000Y111000D02*
Y119000D01*
X74000Y99000D02*
X86000Y111000D01*
X65000Y99000D02*
X74000D01*
D34*
X50000Y121000D02*
X61000D01*
X55000Y110000D02*
X67000D01*
X21000Y92000D02*
X50000Y121000D01*
X37000Y92000D02*
X55000Y110000D01*
X73235Y120235D02*
X74000Y121000D01*
X73235Y116235D02*
Y120235D01*
X67000Y110000D02*
X73235Y116235D01*
D35*
X31000Y242000D02*
D03*
X51000D02*
D03*
X71000D02*
D03*
D36*
X91000D02*
D03*
D37*
X94500Y42000D02*
D03*
X37000D02*
D03*
D38*
X30000Y273000D02*
D03*
X95000D02*
D03*
D39*
X110000Y290000D02*
D03*
X15000D02*
D03*
X14839Y156944D02*
D03*
X110000Y164000D02*
D03*
X108000Y232000D02*
D03*
X38000Y162000D02*
D03*
X23000Y205000D02*
D03*
Y220000D02*
D03*
X100000Y90000D02*
D03*
X65000Y99000D02*
D03*
X74000Y121000D02*
D03*
X61000D02*
D03*
X86000Y119000D02*
D03*
X21000Y92000D02*
D03*
X37000D02*
D03*
M02*
